<svg version="1.2" xmlns="http://www.w3.org/2000/svg" viewBox="0 0 752 686" width="752" height="686"><style>.a{fill:#824b00}</style><path class="a" d="m423.5 686c-234.2 0-423.5-189.3-423.5-423.5 0-234.2 189.3-423.5 423.5-423.5 234.2 0 423.5 189.3 423.5 423.5 0 234.2-189.3 423.5-423.5 423.5z"/></svg> -->

<!-- <svg version="1.2" xmlns="http://www.w3.org/2000/svg" viewBox="0 0 752 686" width="752" height="686">
  <defs>
    <linearGradient id="grad1" x1="0%" y1="0%" x2="100%" y2="0%">
      <stop offset="0%" style="stop-color:rgb(184,153,110);stop-opacity:1" />
      <stop offset="100%" style="stop-color:rgb(130,75,0);stop-opacity:1" />
    </linearGradient>
  </defs>
  <style>
    .a {
      fill: url(#grad1);
    }
  </style>
  <path class="a" d="m423.5 686c-234.2 0-423.5-189.3-423.5-423.5 0-234.2 189.3-423.5 423.5-423.5 234.2 0 423.5 189.3 423.5 423.5 0 234.2-189.3 423.5-423.5 423.5z"/>
</svg>
